PathFileType	4	(X/Y/Z)	/home/ubuntu/injury_detection/risk_analysis_package/data/KD_injured/trc_data/trials/KD_injured.trc
DataRate	CameraRate	NumFrames	NumMarkers	Units	OrigDataRate	OrigDataStartFrame	OrigNumFrames
30	30	4	105	m	30	61	98
Frame#	Time	BLTI			BRTI			C7			CHIN			CLAV			FBBT			FLTI			FRBT			FRTI			LAKI			LANK			LBAC			LBHD			LBWT			LELB			LELS			LELSO			LFBB			LFBT			LFFB			LFFT			LFHD			LFIN			LFLB			LFLT			LFMB			LFMT			LFPI			LFRM			LFWT			LHAP			LHBA			LHEB			LHEE			LHFR			LHME			LHPI			LHTH			LHTO			LKNE			LKNI			LMT5			LSCA			LSHN			LSHO			LTIA			LTIB			LTIC			LTOE			LTOP			LTOS			LUMB			LUMC			LWRA			LWRB			NOSE			RAKI			RANK			RBAC			RBHD			RBWT			RELB			RELS			RELSO			RFBB			RFBT			RFFB			RFFT			RFHD			RFIN			RFLB			RFLT			RFMB			RFMT			RFPI			RFRM			RFWT			RHAP			RHBA			RHEB			RHEE			RHFR			RHME			RHPI			RHTH			RHTO			RIBL			RIBR			RITL			RITR			RKNE			RKNI			RMT5			RSCA			RSHN			RSHO			RTIA			RTIB			RTIC			RTOE			RTOP			RTOS			RWRA			RWRB			THD		
		X1	Y1	Z1	X2	Y2	Z2	X3	Y3	Z3	X4	Y4	Z4	X5	Y5	Z5	X6	Y6	Z6	X7	Y7	Z7	X8	Y8	Z8	X9	Y9	Z9	X10	Y10	Z10	X11	Y11	Z11	X12	Y12	Z12	X13	Y13	Z13	X14	Y14	Z14	X15	Y15	Z15	X16	Y16	Z16	X17	Y17	Z17	X18	Y18	Z18	X19	Y19	Z19	X20	Y20	Z20	X21	Y21	Z21	X22	Y22	Z22	X23	Y23	Z23	X24	Y24	Z24	X25	Y25	Z25	X26	Y26	Z26	X27	Y27	Z27	X28	Y28	Z28	X29	Y29	Z29	X30	Y30	Z30	X31	Y31	Z31	X32	Y32	Z32	X33	Y33	Z33	X34	Y34	Z34	X35	Y35	Z35	X36	Y36	Z36	X37	Y37	Z37	X38	Y38	Z38	X39	Y39	Z39	X40	Y40	Z40	X41	Y41	Z41	X42	Y42	Z42	X43	Y43	Z43	X44	Y44	Z44	X45	Y45	Z45	X46	Y46	Z46	X47	Y47	Z47	X48	Y48	Z48	X49	Y49	Z49	X50	Y50	Z50	X51	Y51	Z51	X52	Y52	Z52	X53	Y53	Z53	X54	Y54	Z54	X55	Y55	Z55	X56	Y56	Z56	X57	Y57	Z57	X58	Y58	Z58	X59	Y59	Z59	X60	Y60	Z60	X61	Y61	Z61	X62	Y62	Z62	X63	Y63	Z63	X64	Y64	Z64	X65	Y65	Z65	X66	Y66	Z66	X67	Y67	Z67	X68	Y68	Z68	X69	Y69	Z69	X70	Y70	Z70	X71	Y71	Z71	X72	Y72	Z72	X73	Y73	Z73	X74	Y74	Z74	X75	Y75	Z75	X76	Y76	Z76	X77	Y77	Z77	X78	Y78	Z78	X79	Y79	Z79	X80	Y80	Z80	X81	Y81	Z81	X82	Y82	Z82	X83	Y83	Z83	X84	Y84	Z84	X85	Y85	Z85	X86	Y86	Z86	X87	Y87	Z87	X88	Y88	Z88	X89	Y89	Z89	X90	Y90	Z90	X91	Y91	Z91	X92	Y92	Z92	X93	Y93	Z93	X94	Y94	Z94	X95	Y95	Z95	X96	Y96	Z96	X97	Y97	Z97	X98	Y98	Z98	X99	Y99	Z99	X100	Y100	Z100	X101	Y101	Z101	X102	Y102	Z102	X103	Y103	Z103	X104	Y104	Z104	X105	Y105	Z105

62	2.03333	-0.67697	-0.629029	91.4395	-0.447772	-0.440445	92.0674	-0.237743	-0.0972435	91.8815	-0.191016	-0.0867966	91.7391	-0.217914	-0.104305	91.7501	-0.704304	-0.681458	91.5083	-0.6772	-0.56565	91.5284	-0.418767	-0.420682	92.1532	-0.419327	-0.335743	92.0621	-0.78319	-0.738832	91.4748	-0.738231	-0.768151	91.4331	-0.0159262	-0.0568906	91.8817	-0.275159	-0.238157	91.6585	-0.133209	-0.113007	91.476	0.115731	0.0564142	91.8925	0.0762731	0.0604977	91.8517	0.130108	0.0285545	91.8756	-0.451393	-0.388717	91.538	-0.311588	-0.347193	91.5382	-0.570741	-0.336946	91.6017	-0.387487	-0.22608	91.5715	-0.174671	-0.169073	91.6071	0.365347	0.228762	91.7635	-0.502499	-0.380028	91.6199	-0.339763	-0.324694	91.6675	-0.502718	-0.319565	91.5209	-0.346519	-0.250953	91.5172	-0.642017	-0.813953	91.5731	0.20103	0.135767	91.8699	-0.112231	-0.214759	91.6607	-0.0106289	-0.086422	91.8234	0.0314814	-0.0112072	91.8951	-0.778785	-0.837033	91.4289	-0.79223	-0.804816	91.4	0.0537897	-0.0569317	91.8224	0.461991	0.227546	91.7337	0.363084	0.253814	91.8173	0.303925	0.260889	91.7337	0.0348425	-0.102372	91.8917	-0.542926	-0.428142	91.5743	-0.606432	-0.377716	91.5429	-0.673234	-0.799863	91.5985	-0.16322	-0.12052	91.9103	-0.565703	-0.527125	91.4988	-0.115618	-0.212518	91.8944	-0.613746	-0.463767	91.5775	-0.663159	-0.617268	91.5343	-0.734749	-0.704243	91.501	-0.666731	-0.791861	91.6493	-0.662989	-0.813606	91.5273	-0.727679	-0.803015	91.6024	-0.00719933	-0.0115098	91.5777	-0.0310331	-0.0251472	91.5522	0.267603	0.247896	91.784	0.290798	0.239794	91.8353	-0.183797	-0.080716	91.6355	-0.361896	-0.486085	92.1818	-0.398283	-0.540188	92.1953	-0.1021	0.0866974	91.8493	-0.33668	-0.167832	91.6516	-0.169653	-0.0592339	91.4844	-0.121752	0.00450875	91.4177	-0.0922931	0.0139485	91.473	-0.154056	0.00943153	91.438	-0.47987	-0.209149	91.8039	-0.404576	-0.177745	91.6493	-0.428766	-0.161345	91.9473	-0.310182	-0.168894	91.7641	-0.269647	-0.0694743	91.6115	-0.00980443	-0.338221	91.4013	-0.485367	-0.151997	91.8713	-0.393833	-0.0532128	91.7345	-0.418136	-0.233423	91.8341	-0.332069	-0.219859	91.696	-0.397144	-0.489951	92.375	-0.105632	-0.102129	91.3983	-0.228259	-0.0279197	91.6697	-0.170268	0.0502598	91.6472	-0.162556	0.0764147	91.5403	-0.316189	-0.572052	92.2176	-0.334553	-0.573199	92.1786	-0.15474	-0.00867521	91.5604	0.0299135	-0.42157	91.3758	-0.03132	-0.31141	91.3515	0.0139035	-0.276039	91.4446	-0.220838	0.0404327	91.572	-0.0416812	-0.182761	91.6649	-0.143717	0.0693573	91.6274	-0.155474	-0.164944	91.7628	-0.226833	-0.0386863	91.7265	-0.513315	-0.195488	91.9426	-0.439288	-0.231347	91.9222	-0.389235	-0.462789	92.3506	-0.245447	0.0423171	91.8563	-0.499028	-0.350431	92.0678	-0.291383	0.0362417	91.7468	-0.45931	-0.23174	91.9988	-0.433354	-0.327186	92.0794	-0.396951	-0.445996	92.1727	-0.381138	-0.41454	92.3624	-0.399856	-0.53493	92.3457	-0.3546	-0.451237	92.3182	-0.0528763	-0.247725	91.4383	-0.0781844	-0.251469	91.3897	-0.276105	-0.171971	91.5218
63	2.06667	-0.692854	-0.614729	92.2174	-0.482317	-0.451134	92.8455	-0.25666	-0.102499	92.6779	-0.207197	-0.0883376	92.5368	-0.235189	-0.104402	92.5467	-0.720567	-0.669007	92.2845	-0.694223	-0.553589	92.308	-0.454004	-0.436499	92.9328	-0.448925	-0.347569	92.8453	-0.79873	-0.725833	92.249	-0.753811	-0.753845	92.2064	-0.0343679	-0.0647961	92.6824	-0.293823	-0.234169	92.449	-0.146857	-0.101898	92.2721	0.0954584	0.0527152	92.6987	0.0550706	0.0584436	92.6587	0.110372	0.0265161	92.6795	-0.468955	-0.377715	92.3231	-0.327987	-0.338179	92.3237	-0.587607	-0.32683	92.3893	-0.402611	-0.217609	92.3623	-0.190929	-0.165639	92.4018	0.334723	0.244078	92.5766	-0.519636	-0.371298	92.4054	-0.355414	-0.320489	92.4539	-0.519645	-0.307338	92.3087	-0.362163	-0.240891	92.3065	-0.655563	-0.804194	92.3422	0.177188	0.136565	92.6803	-0.127978	-0.212114	92.4522	-0.0283309	-0.0885927	92.6208	0.0129351	-0.0175028	92.6972	-0.79455	-0.822662	92.2	-0.808237	-0.789569	92.1723	0.0354262	-0.057107	92.6207	0.430097	0.248921	92.5434	0.333407	0.264753	92.6323	0.270954	0.27555	92.5514	0.01851	-0.108009	92.6867	-0.560759	-0.417052	92.3587	-0.62422	-0.365541	92.3287	-0.686055	-0.790726	92.3686	-0.180332	-0.129022	92.7071	-0.582582	-0.514022	92.2806	-0.130248	-0.22056	92.6847	-0.631522	-0.452721	92.3605	-0.679953	-0.605358	92.3127	-0.750645	-0.691809	92.2765	-0.678159	-0.783916	92.4193	-0.677634	-0.80259	92.2972	-0.740646	-0.793883	92.3735	-0.0218659	-0.00631034	92.38	-0.0456692	-0.0184806	92.3537	0.237128	0.257231	92.6016	0.262289	0.246147	92.6515	-0.198326	-0.0783439	92.4336	-0.400939	-0.505598	92.9592	-0.439477	-0.558674	92.9702	-0.120278	0.0819713	92.654	-0.35361	-0.16215	92.4441	-0.183611	-0.0486633	92.2827	-0.136261	0.00555389	92.22	-0.108102	0.0145813	92.2759	-0.168979	0.00996175	92.2397	-0.500167	-0.205998	92.5918	-0.422384	-0.170437	92.4394	-0.447962	-0.168378	92.738	-0.328559	-0.172154	92.555	-0.283351	-0.0640224	92.409	-0.0191909	-0.335395	92.204	-0.503408	-0.152244	92.6623	-0.406417	-0.0515978	92.5313	-0.439787	-0.234917	92.6209	-0.352194	-0.218318	92.4839	-0.436938	-0.514607	93.1518	-0.118302	-0.100645	92.2	-0.244608	-0.0264528	92.4688	-0.189236	0.0490845	92.4492	-0.179955	0.0760708	92.3425	-0.3586	-0.594108	92.9918	-0.376983	-0.593296	92.9526	-0.171964	-0.00932684	92.3621	0.0225855	-0.418142	92.1799	-0.0398213	-0.309095	92.1536	0.00245607	-0.272682	92.2478	-0.238724	0.0394881	92.3728	-0.0594199	-0.180846	92.4599	-0.158113	0.0741831	92.4321	-0.173203	-0.165771	92.5567	-0.243702	-0.0386719	92.5255	-0.53423	-0.197846	92.731	-0.46144	-0.236	92.7096	-0.428587	-0.48692	93.1283	-0.264643	0.0371084	92.6569	-0.529377	-0.358782	92.849	-0.3104	0.0327131	92.5479	-0.482824	-0.239146	92.7861	-0.462894	-0.339113	92.8628	-0.433897	-0.463762	92.9516	-0.419506	-0.43924	93.1414	-0.440907	-0.558697	93.1212	-0.393418	-0.475463	93.0963	-0.0644649	-0.245629	92.2397	-0.0885249	-0.24959	92.1905	-0.291081	-0.16241	92.3151
64	2.1	-0.698145	-0.610907	92.1202	-0.514857	-0.463195	92.7574	-0.26856	-0.120518	92.6054	-0.218473	-0.0992948	92.4659	-0.246849	-0.115421	92.4744	-0.726671	-0.667521	92.1848	-0.702678	-0.552446	92.2123	-0.489054	-0.452539	92.8463	-0.477739	-0.36075	92.7617	-0.802781	-0.724449	92.1458	-0.757251	-0.750554	92.1029	-0.0464724	-0.08214	92.6124	-0.30498	-0.240298	92.3702	-0.156965	-0.0987877	92.2003	0.0745917	0.0398642	92.6467	0.0355575	0.0469984	92.6054	0.0917291	0.0160544	92.6261	-0.480404	-0.375792	92.2369	-0.339024	-0.336881	92.2401	-0.599613	-0.327131	92.304	-0.413616	-0.217628	92.2832	-0.201301	-0.170113	92.3274	0.306507	0.254378	92.5522	-0.531805	-0.37227	92.319	-0.367299	-0.324642	92.3707	-0.530863	-0.304624	92.2249	-0.372806	-0.238676	92.2266	-0.657328	-0.805458	92.2338	0.151774	0.129142	92.6391	-0.139954	-0.216102	92.3758	-0.0393797	-0.0998653	92.5514	-0.00415906	-0.0335402	92.6355	-0.797616	-0.819414	92.0933	-0.811552	-0.785502	92.0668	0.0231745	-0.065535	92.5568	0.402772	0.267005	92.5241	0.301681	0.269135	92.6096	0.242234	0.284815	92.5273	0.00590995	-0.122423	92.6175	-0.572389	-0.415934	92.2705	-0.635804	-0.363914	92.2409	-0.686967	-0.793103	92.2615	-0.19093	-0.14887	92.6335	-0.591009	-0.510704	92.1892	-0.139058	-0.239068	92.6049	-0.642706	-0.452333	92.2696	-0.687738	-0.604214	92.2159	-0.755937	-0.690638	92.1754	-0.677378	-0.788084	92.3119	-0.680574	-0.802275	92.1899	-0.741799	-0.796689	92.2674	-0.0327594	-0.00884041	92.3131	-0.0566243	-0.0195368	92.2862	0.207328	0.259577	92.5736	0.231143	0.24503	92.6234	-0.208577	-0.0844508	92.3633	-0.439746	-0.524117	92.872	-0.47983	-0.576351	92.8801	-0.133369	0.0656714	92.5916	-0.36441	-0.167888	92.3683	-0.194074	-0.046163	92.2126	-0.135895	0.0105527	92.16	-0.110504	0.0156813	92.2176	-0.169565	0.0141346	92.1781	-0.517259	-0.208647	92.5109	-0.436288	-0.170554	92.361	-0.466306	-0.178411	92.6597	-0.34426	-0.180103	92.4778	-0.29319	-0.0685472	92.3387	-0.0240907	-0.331174	92.1295	-0.519809	-0.157386	92.5836	-0.417392	-0.0562566	92.4579	-0.458342	-0.240995	92.5399	-0.368301	-0.222665	92.4045	-0.475938	-0.539587	93.0643	-0.11843	-0.0943924	92.1342	-0.257394	-0.0319659	92.3989	-0.201049	0.0407268	92.3876	-0.185724	0.0737697	92.2835	-0.399675	-0.614176	92.901	-0.418124	-0.611491	92.8618	-0.179336	-0.0127917	92.2985	0.0173143	-0.413583	92.1035	-0.0413503	-0.302029	92.0794	-0.00353825	-0.271114	92.1777	-0.246408	0.0358711	92.3085	-0.0731653	-0.185835	92.3851	-0.168952	0.0715746	92.3688	-0.184209	-0.176765	92.4813	-0.256067	-0.0490249	92.4567	-0.553878	-0.204284	92.6498	-0.481635	-0.244318	92.6292	-0.467765	-0.511051	93.0417	-0.278161	0.0191859	92.5914	-0.558604	-0.369264	92.7623	-0.324623	0.0189909	92.4821	-0.505594	-0.24919	92.7051	-0.492085	-0.352333	92.779	-0.470824	-0.481269	92.8651	-0.458494	-0.464005	93.0565	-0.480577	-0.582481	93.032	-0.432521	-0.498822	93.0102	-0.0692171	-0.242406	92.1672	-0.0906221	-0.242942	92.1166	-0.300586	-0.162103	92.2401
65	2.13333	-0.70699	-0.60142	92.2078	-0.515253	-0.465675	92.844	-0.273267	-0.113767	92.6928	-0.222167	-0.0957486	92.5533	-0.251792	-0.109773	92.5618	-0.735122	-0.658349	92.2721	-0.711063	-0.543431	92.3003	-0.488345	-0.455543	92.9329	-0.47786	-0.36326	92.8484	-0.811316	-0.714964	92.2333	-0.766429	-0.741046	92.1896	-0.0507579	-0.0774723	92.6987	-0.313251	-0.234309	92.4585	-0.163365	-0.0933168	92.2863	0.0684144	0.0456904	92.7372	0.0294241	0.0530785	92.6958	0.0858788	0.0223204	92.7162	-0.488519	-0.368184	92.3241	-0.346417	-0.331297	92.3254	-0.606365	-0.318875	92.3934	-0.419292	-0.21154	92.3712	-0.20732	-0.167811	92.4153	0.297121	0.264868	92.6455	-0.538708	-0.364836	92.4069	-0.372542	-0.320045	92.4565	-0.538489	-0.296302	92.3135	-0.379486	-0.232593	92.3136	-0.664272	-0.797822	92.3176	0.144355	0.13605	92.7309	-0.144458	-0.2125	92.4605	-0.043641	-0.0938985	92.6387	-0.00938705	-0.0285896	92.7242	-0.807569	-0.809702	92.18	-0.821681	-0.775516	92.154	0.0186409	-0.0587749	92.6449	0.393061	0.279276	92.6174	0.292183	0.278703	92.7031	0.232294	0.294525	92.6212	0.00179172	-0.116999	92.7044	-0.580309	-0.407448	92.3587	-0.643885	-0.354924	92.33	-0.693152	-0.785174	92.3459	-0.194768	-0.143503	92.7208	-0.599483	-0.501665	92.277	-0.142395	-0.234285	92.691	-0.650732	-0.443595	92.358	-0.696108	-0.595252	92.3035	-0.764267	-0.681451	92.2628	-0.682513	-0.780358	92.396	-0.688407	-0.794141	92.2741	-0.747938	-0.788255	92.3528	-0.0382385	-0.004613	92.3988	-0.062428	-0.0151213	92.3721	0.197934	0.268133	92.6672	0.22209	0.253189	92.7168	-0.211839	-0.0817961	92.4507	-0.438902	-0.527293	92.9574	-0.478784	-0.57958	92.9663	-0.137004	0.0712713	92.6771	-0.370407	-0.159976	92.4561	-0.200584	-0.0409678	92.2996	-0.141075	0.00879427	92.247	-0.115855	0.0140209	92.3045	-0.174779	0.0131483	92.2649	-0.520291	-0.208135	92.5992	-0.441169	-0.167566	92.449	-0.467268	-0.18072	92.7476	-0.347664	-0.179684	92.5644	-0.295722	-0.0633141	92.426	-0.0347358	-0.334954	92.2212	-0.521618	-0.158171	92.6728	-0.42046	-0.0553841	92.5478	-0.46113	-0.241353	92.6267	-0.37295	-0.220704	92.4906	-0.470228	-0.541497	93.1504	-0.125209	-0.0966562	92.2223	-0.262475	-0.0292108	92.4866	-0.206825	0.0428447	92.4737	-0.190345	0.0743113	92.3694	-0.39799	-0.617045	92.9857	-0.417489	-0.614609	92.9469	-0.185738	-0.0122836	92.3854	0.00551803	-0.418453	92.1971	-0.0512988	-0.306504	92.1706	-0.0133672	-0.274303	92.2684	-0.252042	0.037855	92.3944	-0.0786927	-0.181652	92.4713	-0.173661	0.0760867	92.4557	-0.18956	-0.171488	92.5685	-0.260815	-0.0437061	92.5436	-0.555134	-0.206031	92.7387	-0.48315	-0.246032	92.7165	-0.463	-0.513203	93.1272	-0.282006	0.0255245	92.6776	-0.558759	-0.371645	92.85	-0.329893	0.024009	92.5692	-0.506242	-0.251433	92.7928	-0.492052	-0.354925	92.866	-0.469986	-0.484455	92.9513	-0.453672	-0.465895	93.141	-0.475535	-0.584827	93.1187	-0.428627	-0.501228	93.0947	-0.0784842	-0.244913	92.2571	-0.0997081	-0.245858	92.2065	-0.306342	-0.1569	92.3279
